{
    "asset" : {
        "generator" : "Khronos glTF Blender I/O v1.1.46",
        "version" : "2.0"
    },
    "scene" : 0,
    "scenes" : [
        {
            "name" : "Scene",
            "nodes" : [
                0
            ]
        }
    ],
    "nodes" : [
        {
            "mesh" : 0,
            "name" : "Cube"
        }
    ],
    "materials" : [
        {
            "doubleSided" : true,
            "emissiveFactor" : [
                0.0188486035913229,
                0.0188486035913229,
                0.0188486035913229
            ],
            "name" : "Material.001",
            "pbrMetallicRoughness" : {
                "baseColorFactor" : [
                    0.1149354875087738,
                    0.1149354875087738,
                    0.1149354875087738,
                    1
                ],
                "metallicFactor" : 1,
                "roughnessFactor" : 0.5
            }
        }
    ],
    "meshes" : [
        {
            "name" : "Cube.001",
            "primitives" : [
                {
                    "attributes" : {
                        "POSITION" : 0,
                        "NORMAL" : 1,
                        "TEXCOORD_0" : 2
                    },
                    "indices" : 3,
                    "material" : 0
                }
            ]
        }
    ],
    "accessors" : [
        {
            "bufferView" : 0,
            "componentType" : 5126,
            "count" : 90,
            "max" : [
                0.046076323837041855,
                0.0639447271823883,
                0.08532652258872986
            ],
            "min" : [
                -0.046076323837041855,
                -0.015326528809964657,
                -0.08532652258872986
            ],
            "type" : "VEC3"
        },
        {
            "bufferView" : 1,
            "componentType" : 5126,
            "count" : 90,
            "type" : "VEC3"
        },
        {
            "bufferView" : 2,
            "componentType" : 5126,
            "count" : 90,
            "type" : "VEC2"
        },
        {
            "bufferView" : 3,
            "componentType" : 5123,
            "count" : 144,
            "type" : "SCALAR"
        }
    ],
    "bufferViews" : [
        {
            "buffer" : 0,
            "byteLength" : 1080,
            "byteOffset" : 0
        },
        {
            "buffer" : 0,
            "byteLength" : 1080,
            "byteOffset" : 1080
        },
        {
            "buffer" : 0,
            "byteLength" : 720,
            "byteOffset" : 2160
        },
        {
            "buffer" : 0,
            "byteLength" : 288,
            "byteOffset" : 2880
        }
    ],
    "buffers" : [
        {
            "byteLength" : 3168,
            "uri" : "data:application/octet-stream;base64,"
        }
    ]
}
